<mxfile host="app.diagrams.net" agent="Mozilla/5.0 (Windows NT 10.0; Win64; x64) AppleWebKit/537.36 (KHTML, like Gecko) Chrome/139.0.0.0 Safari/537.36" version="28.1.1">
  <diagram name="Page-1" id="flJFop5a6DuQjZE6KmWw">
    <mxGraphModel dx="398" dy="338" grid="1" gridSize="10" guides="1" tooltips="1" connect="1" arrows="1" fold="1" page="1" pageScale="1" pageWidth="850" pageHeight="1100" math="0" shadow="0">
      <root>
        <mxCell id="0" />
        <mxCell id="1" parent="0" />
        <mxCell id="Syd0XYpwKGvXGHDGsL5l-85" value="" style="rounded=0;whiteSpace=wrap;html=1;fillColor=none;strokeColor=none;" vertex="1" parent="1">
          <mxGeometry x="361" y="654" width="128" height="128" as="geometry" />
        </mxCell>
        <mxCell id="Syd0XYpwKGvXGHDGsL5l-86" value="&lt;font data-font-src=&quot;https://fonts.googleapis.com/css?family=Zen+Old+Mincho&quot; face=&quot;Zen Old Mincho&quot;&gt;變&lt;/font&gt;" style="text;html=1;align=center;verticalAlign=middle;whiteSpace=wrap;rounded=0;fontSize=20;" vertex="1" parent="1">
          <mxGeometry x="405" y="736" width="30" height="20" as="geometry" />
        </mxCell>
        <mxCell id="Syd0XYpwKGvXGHDGsL5l-80" value="piàn" style="text;html=1;align=center;verticalAlign=middle;whiteSpace=wrap;rounded=0;fontSize=12;" vertex="1" parent="1">
          <mxGeometry x="405" y="720" width="30" height="20" as="geometry" />
        </mxCell>
        <mxCell id="Syd0XYpwKGvXGHDGsL5l-81" value="tiāu" style="text;html=1;align=center;verticalAlign=middle;whiteSpace=wrap;rounded=0;fontSize=12;" vertex="1" parent="1">
          <mxGeometry x="435" y="720" width="30" height="20" as="geometry" />
        </mxCell>
        <mxCell id="Syd0XYpwKGvXGHDGsL5l-82" value="7" style="text;html=1;align=center;verticalAlign=middle;whiteSpace=wrap;rounded=0;fontSize=10;" vertex="1" parent="1">
          <mxGeometry x="440" y="713" width="20" height="10" as="geometry" />
        </mxCell>
        <mxCell id="Syd0XYpwKGvXGHDGsL5l-83" value="-" style="text;html=1;align=center;verticalAlign=middle;whiteSpace=wrap;rounded=0;" vertex="1" parent="1">
          <mxGeometry x="430" y="720" width="10" height="20" as="geometry" />
        </mxCell>
        <mxCell id="Syd0XYpwKGvXGHDGsL5l-87" value="&lt;font data-font-src=&quot;https://fonts.googleapis.com/css?family=Zen+Old+Mincho&quot; face=&quot;Zen Old Mincho&quot;&gt;調&lt;/font&gt;" style="text;html=1;align=center;verticalAlign=middle;whiteSpace=wrap;rounded=0;fontSize=20;" vertex="1" parent="1">
          <mxGeometry x="435" y="736" width="30" height="20" as="geometry" />
        </mxCell>
        <mxCell id="Syd0XYpwKGvXGHDGsL5l-89" value="&lt;font style=&quot;color: rgb(255, 0, 0);&quot;&gt;2&lt;/font&gt;" style="text;html=1;align=center;verticalAlign=middle;whiteSpace=wrap;rounded=0;fontSize=10;" vertex="1" parent="1">
          <mxGeometry x="410" y="713" width="20" height="10" as="geometry" />
        </mxCell>
        <mxCell id="Syd0XYpwKGvXGHDGsL5l-97" value="&lt;font data-font-src=&quot;https://fonts.googleapis.com/css?family=Zen+Old+Mincho&quot; face=&quot;Zen Old Mincho&quot;&gt;台&lt;/font&gt;" style="text;html=1;align=center;verticalAlign=middle;whiteSpace=wrap;rounded=0;fontSize=20;" vertex="1" parent="1">
          <mxGeometry x="390" y="693" width="30" height="20" as="geometry" />
        </mxCell>
        <mxCell id="Syd0XYpwKGvXGHDGsL5l-98" value="tâi" style="text;html=1;align=center;verticalAlign=middle;whiteSpace=wrap;rounded=0;fontSize=12;" vertex="1" parent="1">
          <mxGeometry x="390" y="677" width="30" height="20" as="geometry" />
        </mxCell>
        <mxCell id="Syd0XYpwKGvXGHDGsL5l-99" value="gí" style="text;html=1;align=center;verticalAlign=middle;whiteSpace=wrap;rounded=0;fontSize=12;" vertex="1" parent="1">
          <mxGeometry x="420" y="677" width="30" height="20" as="geometry" />
        </mxCell>
        <mxCell id="Syd0XYpwKGvXGHDGsL5l-100" value="2" style="text;html=1;align=center;verticalAlign=middle;whiteSpace=wrap;rounded=0;fontSize=10;" vertex="1" parent="1">
          <mxGeometry x="425" y="670" width="20" height="10" as="geometry" />
        </mxCell>
        <mxCell id="Syd0XYpwKGvXGHDGsL5l-101" value="-" style="text;html=1;align=center;verticalAlign=middle;whiteSpace=wrap;rounded=0;" vertex="1" parent="1">
          <mxGeometry x="415" y="677" width="10" height="20" as="geometry" />
        </mxCell>
        <mxCell id="Syd0XYpwKGvXGHDGsL5l-102" value="&lt;font data-font-src=&quot;https://fonts.googleapis.com/css?family=Zen+Old+Mincho&quot; face=&quot;Zen Old Mincho&quot;&gt;語&lt;/font&gt;" style="text;html=1;align=center;verticalAlign=middle;whiteSpace=wrap;rounded=0;fontSize=20;" vertex="1" parent="1">
          <mxGeometry x="420" y="693" width="30" height="20" as="geometry" />
        </mxCell>
        <mxCell id="Syd0XYpwKGvXGHDGsL5l-103" value="&lt;font style=&quot;color: rgb(255, 0, 0);&quot;&gt;7/3/6&lt;/font&gt;" style="text;html=1;align=center;verticalAlign=middle;whiteSpace=wrap;rounded=0;fontSize=10;" vertex="1" parent="1">
          <mxGeometry x="395" y="670" width="20" height="10" as="geometry" />
        </mxCell>
      </root>
    </mxGraphModel>
  </diagram>
</mxfile>
